HIERARCHY
ROOT Hips
{
	OFFSET 0.000000 0.000000 0.000000
	CHANNELS 6 Xposition Yposition Zposition Xrotation Yrotation Zrotation
	JOINT LeftUpLeg_virtual
	{
		OFFSET 0.000000 0.000000 0.000000
		CHANNELS 3 Xrotation Yrotation Zrotation
		JOINT LeftUpLeg
		{
			OFFSET 13.026900 -6.336304 -1.092800
			CHANNELS 3 Xrotation Yrotation Zrotation
			JOINT LeftLeg
			{
				OFFSET 0.524474 -46.096886 9.782700
				CHANNELS 3 Xrotation Yrotation Zrotation
				JOINT LeftFoot
				{
					OFFSET -0.524474 -53.427422 -12.948200
					CHANNELS 3 Xrotation Yrotation Zrotation
					JOINT LeftToeBase
					{
						OFFSET 0.192200 -14.009700 16.364100
						CHANNELS 3 Xrotation Yrotation Zrotation
						JOINT LeftToe_End
						{
							OFFSET -1.784700 -0.561700 9.474800
							CHANNELS 3 Xrotation Yrotation Zrotation
							End Site
							{
								OFFSET 0 0 0
							}
						}
					}
				}
			}
		}
	}
	JOINT RightUpLeg_virtual
	{
		OFFSET 0.000000 0.000000 0.000000
		CHANNELS 3 Xrotation Yrotation Zrotation
		JOINT RightUpLeg
		{
			OFFSET -12.883000 -6.336304 -1.092800
			CHANNELS 3 Xrotation Yrotation Zrotation
			JOINT RightLeg
			{
				OFFSET -0.524587 -46.096825 9.782800
				CHANNELS 3 Xrotation Yrotation Zrotation
				JOINT RightFoot
				{
					OFFSET 0.524587 -53.427383 -12.948300
					CHANNELS 3 Xrotation Yrotation Zrotation
					JOINT RightToeBase
					{
						OFFSET -0.192200 -14.009700 16.364100
						CHANNELS 3 Xrotation Yrotation Zrotation
						JOINT RightToe_End
						{
							OFFSET 1.784700 -0.561700 9.474800
							CHANNELS 3 Xrotation Yrotation Zrotation
							End Site
							{
								OFFSET 0 0 0
							}
						}
					}
				}
			}
		}
	}
	JOINT Spine_virtual
	{
		OFFSET 0.000000 0.000000 0.000000
		CHANNELS 3 Xrotation Yrotation Zrotation
		JOINT Spine
		{
			OFFSET 0.072000 7.257294 -0.789700
			CHANNELS 3 Xrotation Yrotation Zrotation
			JOINT Spine1
			{
				OFFSET 0.000000 12.508769 -0.658067
				CHANNELS 3 Xrotation Yrotation Zrotation
				JOINT Spine1_split
				{
					OFFSET 0.000000 12.508769 -0.658067
					CHANNELS 3 Xrotation Yrotation Zrotation
					JOINT Spine2
					{
						OFFSET 0.000000 12.508769 -0.658067
						CHANNELS 3 Xrotation Yrotation Zrotation
						JOINT Neck_virtual
						{
							OFFSET 0.000000 0.000000 0.000000
							CHANNELS 3 Xrotation Yrotation Zrotation
							JOINT Neck
							{
								OFFSET 0.000000 14.033295 7.520400
								CHANNELS 3 Xrotation Yrotation Zrotation
								JOINT Head
								{
									OFFSET 0.000000 8.198502 5.703100
									CHANNELS 3 Xrotation Yrotation Zrotation
									JOINT HeadTop_End
									{
										OFFSET 0.000000 17.760803 13.332701
										CHANNELS 3 Xrotation Yrotation Zrotation
										End Site
										{
											OFFSET 0 0 0
										}
									}
								}
							}
						}
						JOINT LeftShoulder_virtual
						{
							OFFSET 0.000000 0.000000 0.000000
							CHANNELS 3 Xrotation Yrotation Zrotation
							JOINT LeftShoulder
							{
								OFFSET 6.292450 5.785301 -0.669000
								CHANNELS 3 Xrotation Yrotation Zrotation
								JOINT LeftShoulder_split
								{
									OFFSET 6.292450 5.785301 -0.669000
									CHANNELS 3 Xrotation Yrotation Zrotation
									JOINT LeftArm
									{
										OFFSET 13.907140 -6.093903 1.965100
										CHANNELS 3 Xrotation Yrotation Zrotation
										JOINT LeftForeArm
										{
											OFFSET 34.140198 0.000000 0.000000
											CHANNELS 3 Xrotation Yrotation Zrotation
											JOINT LeftHand
											{
												OFFSET 40.960209 0.000000 0.000000
												CHANNELS 3 Xrotation Yrotation Zrotation
												End Site
												{
													OFFSET 0 0 0
												}
											}
										}
									}
								}
							}
						}
						JOINT RightShoulder_virtual
						{
							OFFSET 0.000000 0.000000 0.000000
							CHANNELS 3 Xrotation Yrotation Zrotation
							JOINT RightShoulder
							{
								OFFSET -6.292450 5.785301 -0.669000
								CHANNELS 3 Xrotation Yrotation Zrotation
								JOINT RightShoulder_split
								{
									OFFSET -6.292450 5.785301 -0.669000
									CHANNELS 3 Xrotation Yrotation Zrotation
									JOINT RightArm
									{
										OFFSET -13.907140 -6.093903 1.965100
										CHANNELS 3 Xrotation Yrotation Zrotation
										JOINT RightForeArm
										{
											OFFSET -34.140198 0.000000 0.000000
											CHANNELS 3 Xrotation Yrotation Zrotation
											JOINT RightHand
											{
												OFFSET -40.960209 0.000000 0.000000
												CHANNELS 3 Xrotation Yrotation Zrotation
												End Site
												{
													OFFSET 0 0 0
												}
											}
										}
									}
								}
							}
						}
					}
				}
			}
		}
	}
}
MOTION
Frames: 7
Frame Time: 0.03333333
4.417038 119.676399 -11.908131 0.000000 0.000000 0.000000 -2.814512 19.250830 0.530479 -11.145821 17.434674 8.562233 9.310033 -4.293176 2.587770 1.059761 4.499647 -12.565105 -0.242107 -2.734435 0.039382 0.000000 0.000000 0.000000 -1.941683 19.704078 0.466342 -7.738215 4.230735 2.883388 8.332832 2.349678 -1.875248 -2.032085 -5.371081 6.302245 4.553793 0.620479 -10.454853 0.000000 0.000000 0.000000 -3.059792 24.447897 0.153154 2.355047 -3.210929 0.751993 3.518850 -1.448649 1.024272 0.188963 -0.529196 0.043410 0.000000 0.000000 0.000000 1.728966 0.969810 0.988075 -9.527182 6.354281 8.854226 6.846985 -23.059670 -6.484214 0.000000 0.000000 0.000000 1.120238 -0.811964 0.817043 1.318874 -1.521396 -4.091000 -0.087337 -2.385718 -2.124681 4.580491 12.368403 -81.329842 13.392651 -25.716794 4.975643 0.000000 0.000000 0.000000 1.951019 -0.520808 1.246058 2.499620 -3.701522 8.321033 -4.261251 1.259486 -1.540274 3.471518 18.458190 72.224162 1.284727 16.285795 2.707852 0.000000 0.000000 0.000000 
4.757935 119.680199 -12.000309 0.000000 0.000000 0.000000 -2.746438 18.844249 0.462918 -10.996482 17.322251 8.322817 9.116828 -4.049288 2.734269 0.552091 4.613479 -12.046593 -0.093228 -2.749460 -0.025122 0.000000 0.000000 0.000000 -1.995929 19.474562 0.412154 -7.687298 3.859045 2.799321 7.816928 2.152996 -1.805481 -2.267934 -5.290737 5.691455 5.367394 0.648991 -10.413599 0.000000 0.000000 0.000000 -2.820862 24.218282 -0.031616 2.195079 -3.152259 0.844392 3.564743 -1.455373 0.992288 0.230145 -0.562947 0.046395 0.000000 0.000000 0.000000 1.834402 0.966523 0.984574 -9.480745 6.420493 8.906564 6.856915 -22.807021 -6.532582 0.000000 0.000000 0.000000 1.167261 -0.823029 0.796463 1.336621 -1.514614 -4.046259 0.070587 -2.749928 -1.906719 4.558918 12.318294 -81.401641 13.414989 -25.802025 5.018974 0.000000 0.000000 0.000000 1.960138 -0.526125 1.262468 2.417026 -4.001970 8.062974 -4.373788 1.117887 -1.529674 2.924674 18.911810 72.364987 1.165502 17.229697 2.594031 0.000000 0.000000 0.000000 
5.260249 119.684753 -12.010250 0.000000 0.000000 0.000000 -2.717299 18.507231 0.373270 -10.768534 17.439582 8.111356 9.261245 -3.935725 2.844262 0.001385 4.497724 -11.816221 0.251776 -2.779602 0.070348 0.000000 0.000000 0.000000 -2.121995 18.942519 0.344805 -7.766024 3.386236 2.530022 7.304917 2.196933 -1.659177 -1.939580 -5.020409 5.651252 5.026715 0.811951 -10.239498 0.000000 0.000000 0.000000 -2.720014 24.006146 -0.213302 2.085018 -3.008444 0.996114 3.609881 -1.466456 0.932318 0.259354 -0.580235 0.036629 0.000000 0.000000 0.000000 1.984604 0.955568 0.939008 -9.624952 6.455070 9.053290 6.939201 -22.217118 -6.387648 0.000000 0.000000 0.000000 1.224104 -0.844579 0.734504 1.329376 -1.441752 -3.895186 0.219061 -3.105854 -1.681616 4.480053 12.442109 -81.606178 13.419445 -25.885561 5.079288 0.000000 0.000000 0.000000 1.999270 -0.551177 1.240801 2.274856 -4.429541 7.675749 -4.365283 0.907626 -1.422058 2.194175 19.577684 72.619377 1.087437 18.066441 2.120156 0.000000 0.000000 0.000000 
5.894638 119.704651 -11.917866 0.000000 0.000000 0.000000 -2.758207 18.280387 0.318253 -10.502854 17.884138 7.905570 9.655289 -3.854830 2.880874 -0.568912 4.209675 -11.751067 0.733552 -2.822014 0.345407 0.000000 0.000000 0.000000 -2.196940 18.320953 0.284822 -7.701326 3.023024 2.150370 6.812403 2.354185 -1.451808 -1.535463 -4.727944 5.858119 3.979736 1.046260 -9.960569 0.000000 0.000000 0.000000 -2.750841 23.832039 -0.334133 2.041431 -2.828444 1.146031 3.657019 -1.475879 0.868545 0.263088 -0.582376 0.038553 0.000000 0.000000 0.000000 2.118523 0.933292 0.881482 -9.874238 6.457048 9.259307 7.214859 -21.413032 -6.020917 0.000000 0.000000 0.000000 1.268261 -0.872734 0.650785 1.306161 -1.303762 -3.700739 0.352597 -3.413436 -1.483237 4.431157 12.615997 -81.962413 13.395049 -25.926604 5.129318 0.000000 0.000000 0.000000 2.070454 -0.585918 1.202031 2.083541 -4.876522 7.224090 -4.278763 0.812187 -1.314046 1.439560 20.173138 72.993207 1.048825 18.667361 1.353936 0.000000 0.000000 0.000000 
6.618194 119.718430 -11.687572 0.000000 0.000000 0.000000 -2.831565 18.177673 0.320492 -10.269539 18.519752 7.681785 10.097414 -3.756458 2.861689 -1.166066 3.860267 -11.684091 1.298987 -2.848866 0.749049 0.000000 0.000000 0.000000 -2.147310 17.732482 0.202761 -7.349805 2.741147 1.730136 6.237637 2.337005 -1.215524 -1.504283 -4.667330 5.896109 3.430610 1.250837 -9.684881 0.000000 0.000000 0.000000 -2.826646 23.718761 -0.395520 2.079021 -2.661578 1.233979 3.707885 -1.482316 0.829749 0.253855 -0.573644 0.035336 0.000000 0.000000 0.000000 2.184429 0.901190 0.846545 -10.205192 6.451131 9.523456 7.762470 -20.440724 -5.479881 0.000000 0.000000 0.000000 1.286158 -0.908461 0.583633 1.264824 -1.149602 -3.496239 0.526470 -3.600182 -1.295217 4.467614 12.658235 -82.436709 13.352363 -25.955807 5.141899 0.000000 0.000000 0.000000 2.154428 -0.626771 1.169507 1.871002 -5.206370 6.775527 -4.172036 0.871376 -1.194375 0.747084 20.492825 73.449525 1.013950 19.108554 0.423633 0.000000 0.000000 0.000000 
7.424642 119.737022 -11.356617 0.000000 0.000000 0.000000 -2.842136 18.138541 0.354185 -9.932702 19.116615 7.348836 10.353748 -3.519171 2.841643 -1.861744 3.604365 -11.254330 1.851869 -2.851753 1.186981 0.000000 0.000000 0.000000 -2.036892 17.321409 0.119080 -6.735332 2.473154 1.237309 5.635172 2.080128 -0.932999 -1.874274 -4.858375 5.799464 3.715980 1.426596 -9.608519 0.000000 0.000000 0.000000 -2.819657 23.707836 -0.425268 2.223756 -2.541899 1.232157 3.751407 -1.476146 0.833502 0.225443 -0.509575 0.021843 0.000000 0.000000 0.000000 2.164090 0.869295 0.853216 -10.561119 6.474328 9.849503 8.635167 -19.294864 -4.779392 0.000000 0.000000 0.000000 1.275091 -0.941381 0.567713 1.209517 -1.037731 -3.335001 0.757303 -3.633409 -1.121445 4.608248 12.463555 -82.939650 13.327355 -26.068894 5.117199 0.000000 0.000000 0.000000 2.228805 -0.656880 1.169940 1.654131 -5.298674 6.360355 -4.034530 1.014874 -1.046483 0.152854 20.403326 73.953853 0.950787 19.579142 -0.522861 0.000000 0.000000 0.000000 
8.317348 119.802635 -10.985950 0.000000 0.000000 0.000000 -2.765473 17.951341 0.374237 -9.433542 19.337558 6.886294 10.430428 -3.217954 2.884919 -2.496110 3.520750 -10.512340 2.352152 -2.812293 1.556359 0.000000 0.000000 0.000000 -1.863897 17.186375 0.067639 -6.030396 2.171867 0.553104 5.140030 1.843803 -0.615637 -2.337638 -5.069874 6.249142 4.031618 1.645322 -9.942420 0.000000 0.000000 0.000000 -2.713479 23.758285 -0.411943 2.480222 -2.467653 1.109801 3.759967 -1.452764 0.889132 0.199370 -0.407982 0.022291 0.000000 0.000000 0.000000 2.060890 0.851562 0.912000 -10.896147 6.531899 10.270318 9.793613 -18.024048 -3.945351 0.000000 0.000000 0.000000 1.234645 -0.957424 0.626804 1.147169 -0.992811 -3.199670 1.021449 -3.440201 -1.014710 4.806642 12.012447 -83.399417 13.338000 -26.292805 5.049030 0.000000 0.000000 0.000000 2.262474 -0.664587 1.210475 1.453945 -5.135343 5.998163 -3.841923 1.155141 -0.854800 -0.365333 19.873810 74.448311 0.857901 20.219088 -1.357075 0.000000 0.000000 0.000000 
